<mxfile host="app.diagrams.net" agent="Mozilla/5.0 (Windows NT 10.0; Win64; x64) AppleWebKit/537.36 (KHTML, like Gecko) Chrome/137.0.0.0 Safari/537.36" version="27.1.3">
  <diagram name="Output Artifact Structure" id="output-structure">
    <mxGraphModel dx="1303" dy="659" grid="1" gridSize="10" guides="1" tooltips="1" connect="1" arrows="1" fold="1" page="1" pageScale="1" pageWidth="1400" pageHeight="900" math="0" shadow="0">
      <root>
        <mxCell id="0" />
        <mxCell id="1" parent="0" />
        <mxCell id="title" value="Output S3 Bucket Structure &amp; Artifact Organization" style="text;html=1;strokeColor=none;fillColor=none;align=center;verticalAlign=middle;whiteSpace=wrap;rounded=0;fontSize=18;fontStyle=1;fontColor=#232F3E;" parent="1" vertex="1">
          <mxGeometry x="310" y="50" width="700" height="30" as="geometry" />
        </mxCell>
        <mxCell id="s3-bucket-structure" value="Output S3 Bucket Structure" style="points=[[0,0],[0.25,0],[0.5,0],[0.75,0],[1,0],[1,0.25],[1,0.5],[1,0.75],[1,1],[0.75,1],[0.5,1],[0.25,1],[0,1],[0,0.75],[0,0.5],[0,0.25]];outlineConnect=0;gradientColor=none;html=1;whiteSpace=wrap;fontSize=16;fontStyle=1;container=1;pointerEvents=0;collapsible=0;recursiveResize=0;shape=mxgraph.aws4.group;grIcon=mxgraph.aws4.group_s3_bucket;strokeColor=#3F48CC;fillColor=#E1F5FE;verticalAlign=top;align=left;spacingLeft=30;fontColor=#232F3E;dashed=0;" parent="1" vertex="1">
          <mxGeometry x="60" y="150" width="1200" height="700" as="geometry" />
        </mxCell>
        <mxCell id="root-dir" value="📁 output/" style="sketch=0;outlineConnect=0;fontColor=#232F3E;gradientColor=none;fillColor=#3F48CC;strokeColor=none;dashed=0;verticalLabelPosition=bottom;verticalAlign=top;align=center;html=1;fontSize=12;fontStyle=1;aspect=fixed;pointerEvents=1;shape=mxgraph.aws4.s3;" parent="s3-bucket-structure" vertex="1">
          <mxGeometry x="120" y="30" width="60" height="60" as="geometry" />
        </mxCell>
        <mxCell id="0Qthqk3X6Qb_spCmdpEP-12" value="" style="endArrow=none;dashed=1;html=1;strokeColor=#FFC107;strokeWidth=2;" edge="1" parent="s3-bucket-structure" target="metadata-json-detail">
          <mxGeometry width="50" height="50" relative="1" as="geometry">
            <mxPoint x="938" y="440" as="sourcePoint" />
            <mxPoint x="1340" y="613" as="targetPoint" />
            <Array as="points">
              <mxPoint x="1010" y="610" />
            </Array>
          </mxGeometry>
        </mxCell>
        <mxCell id="0Qthqk3X6Qb_spCmdpEP-13" value="" style="endArrow=none;dashed=1;html=1;strokeColor=#FFC107;strokeWidth=2;" edge="1" parent="s3-bucket-structure" target="metadata-json-detail">
          <mxGeometry width="50" height="50" relative="1" as="geometry">
            <mxPoint x="1050" y="440" as="sourcePoint" />
            <mxPoint x="1452" y="613" as="targetPoint" />
            <Array as="points">
              <mxPoint x="1122" y="610" />
              <mxPoint x="1250" y="610" />
            </Array>
          </mxGeometry>
        </mxCell>
        <mxCell id="0Qthqk3X6Qb_spCmdpEP-81" value="" style="group" vertex="1" connectable="0" parent="s3-bucket-structure">
          <mxGeometry x="20" y="160" width="1140" height="510" as="geometry" />
        </mxCell>
        <mxCell id="0Qthqk3X6Qb_spCmdpEP-80" value="" style="group" vertex="1" connectable="0" parent="0Qthqk3X6Qb_spCmdpEP-81">
          <mxGeometry width="1140" height="510" as="geometry" />
        </mxCell>
        <mxCell id="session-dir" value="Session Directory" style="rounded=1;whiteSpace=wrap;html=1;fillColor=#FFF3E0;strokeColor=#FF9800;fontSize=14;fontStyle=1;verticalAlign=top;spacingTop=10;" parent="0Qthqk3X6Qb_spCmdpEP-80" vertex="1">
          <mxGeometry width="1140" height="510" as="geometry" />
        </mxCell>
        <mxCell id="0Qthqk3X6Qb_spCmdpEP-74" value="" style="group" vertex="1" connectable="0" parent="0Qthqk3X6Qb_spCmdpEP-80">
          <mxGeometry x="750" y="150" width="370" height="140" as="geometry" />
        </mxCell>
        <mxCell id="metadata-config" value="Metadata &amp; Config" style="rounded=1;whiteSpace=wrap;html=1;fillColor=#FCE4EC;strokeColor=#E91E63;fontSize=12;fontStyle=1;verticalAlign=top;spacingTop=10;" parent="0Qthqk3X6Qb_spCmdpEP-74" vertex="1">
          <mxGeometry width="370" height="140" as="geometry" />
        </mxCell>
        <mxCell id="task-config" value="📋 original_task_config.json" style="sketch=0;outlineConnect=0;fontColor=#232F3E;gradientColor=none;fillColor=#E91E63;strokeColor=none;dashed=0;verticalLabelPosition=bottom;verticalAlign=top;align=center;html=1;fontSize=10;fontStyle=0;aspect=fixed;pointerEvents=1;shape=mxgraph.aws4.s3_object;" parent="0Qthqk3X6Qb_spCmdpEP-74" vertex="1">
          <mxGeometry x="150" y="50" width="40" height="40" as="geometry" />
        </mxCell>
        <mxCell id="quality-metrics" value="📈 quality_metrics.json" style="sketch=0;outlineConnect=0;fontColor=#232F3E;gradientColor=none;fillColor=#E91E63;strokeColor=none;dashed=0;verticalLabelPosition=bottom;verticalAlign=top;align=center;html=1;fontSize=10;fontStyle=0;aspect=fixed;pointerEvents=1;shape=mxgraph.aws4.s3_object;" parent="0Qthqk3X6Qb_spCmdpEP-74" vertex="1">
          <mxGeometry x="270" y="50" width="40" height="40" as="geometry" />
        </mxCell>
        <mxCell id="meta-json" value="📊 metadata.json" style="sketch=0;outlineConnect=0;fontColor=#232F3E;gradientColor=none;fillColor=#E91E63;strokeColor=none;dashed=0;verticalLabelPosition=bottom;verticalAlign=top;align=center;html=1;fontSize=10;fontStyle=0;aspect=fixed;pointerEvents=1;shape=mxgraph.aws4.s3_object;" parent="0Qthqk3X6Qb_spCmdpEP-74" vertex="1">
          <mxGeometry x="50" y="50" width="40" height="40" as="geometry" />
        </mxCell>
        <mxCell id="0Qthqk3X6Qb_spCmdpEP-75" value="" style="group" vertex="1" connectable="0" parent="0Qthqk3X6Qb_spCmdpEP-80">
          <mxGeometry x="50" y="150" width="660" height="140" as="geometry" />
        </mxCell>
        <mxCell id="core-assets" value="Core Assets" style="rounded=1;whiteSpace=wrap;html=1;fillColor=#E8F5E8;strokeColor=#4CAF50;fontSize=12;fontStyle=1;verticalAlign=top;spacingTop=10;" parent="0Qthqk3X6Qb_spCmdpEP-75" vertex="1">
          <mxGeometry width="660" height="140" as="geometry" />
        </mxCell>
        <mxCell id="processed-data" value="📊 processed_data.json&#xa;Transformed dataset" style="sketch=0;outlineConnect=0;fontColor=#232F3E;gradientColor=none;fillColor=#4CAF50;strokeColor=none;dashed=0;verticalLabelPosition=bottom;verticalAlign=top;align=center;html=1;fontSize=10;fontStyle=0;aspect=fixed;pointerEvents=1;shape=mxgraph.aws4.s3_object;" parent="0Qthqk3X6Qb_spCmdpEP-75" vertex="1">
          <mxGeometry x="190" y="50" width="40" height="40" as="geometry" />
        </mxCell>
        <mxCell id="output-payload" value="📦 output_payload.json&#xa;Primary results" style="sketch=0;outlineConnect=0;fontColor=#232F3E;gradientColor=none;fillColor=#4CAF50;strokeColor=none;dashed=0;verticalLabelPosition=bottom;verticalAlign=top;align=center;html=1;fontSize=10;fontStyle=0;aspect=fixed;pointerEvents=1;shape=mxgraph.aws4.s3_object;" parent="0Qthqk3X6Qb_spCmdpEP-75" vertex="1">
          <mxGeometry x="40" y="50" width="40" height="40" as="geometry" />
        </mxCell>
        <mxCell id="logs-dir" value="📁 logs/" style="sketch=0;outlineConnect=0;fontColor=#232F3E;gradientColor=none;fillColor=#4CAF50;strokeColor=none;dashed=0;verticalLabelPosition=bottom;verticalAlign=top;align=center;html=1;fontSize=10;fontStyle=0;aspect=fixed;pointerEvents=1;shape=mxgraph.aws4.folder;" parent="0Qthqk3X6Qb_spCmdpEP-75" vertex="1">
          <mxGeometry x="540" y="50" width="40" height="40" as="geometry" />
        </mxCell>
        <mxCell id="reports-dir" value="📁 reports/" style="sketch=0;outlineConnect=0;fontColor=#232F3E;gradientColor=none;fillColor=#4CAF50;strokeColor=none;dashed=0;verticalLabelPosition=bottom;verticalAlign=top;align=center;html=1;fontSize=10;fontStyle=0;aspect=fixed;pointerEvents=1;shape=mxgraph.aws4.folder;" parent="0Qthqk3X6Qb_spCmdpEP-75" vertex="1">
          <mxGeometry x="350" y="50" width="40" height="40" as="geometry" />
        </mxCell>
        <mxCell id="0Qthqk3X6Qb_spCmdpEP-76" value="" style="group" vertex="1" connectable="0" parent="0Qthqk3X6Qb_spCmdpEP-80">
          <mxGeometry x="210" y="330" width="300" height="120" as="geometry" />
        </mxCell>
        <mxCell id="report-files" value="Report Files" style="rounded=1;whiteSpace=wrap;html=1;fillColor=#FFF3E0;strokeColor=#FF9800;fontSize=12;fontStyle=1;verticalAlign=top;spacingTop=10;" parent="0Qthqk3X6Qb_spCmdpEP-76" vertex="1">
          <mxGeometry width="300" height="120" as="geometry" />
        </mxCell>
        <mxCell id="compliance-report" value="✅ compliance.json" style="sketch=0;outlineConnect=0;fontColor=#232F3E;gradientColor=none;fillColor=#FF9800;strokeColor=none;dashed=0;verticalLabelPosition=bottom;verticalAlign=top;align=center;html=1;fontSize=10;fontStyle=0;aspect=fixed;pointerEvents=1;shape=mxgraph.aws4.s3_object;" parent="0Qthqk3X6Qb_spCmdpEP-76" vertex="1">
          <mxGeometry x="220" y="45" width="30" height="30" as="geometry" />
        </mxCell>
        <mxCell id="detailed-analysis" value="📈 analysis.xlsx" style="sketch=0;outlineConnect=0;fontColor=#232F3E;gradientColor=none;fillColor=#FF9800;strokeColor=none;dashed=0;verticalLabelPosition=bottom;verticalAlign=top;align=center;html=1;fontSize=10;fontStyle=0;aspect=fixed;pointerEvents=1;shape=mxgraph.aws4.s3_object;" parent="0Qthqk3X6Qb_spCmdpEP-76" vertex="1">
          <mxGeometry x="130" y="45" width="30" height="30" as="geometry" />
        </mxCell>
        <mxCell id="summary-report" value="📄 summary.pdf" style="sketch=0;outlineConnect=0;fontColor=#232F3E;gradientColor=none;fillColor=#FF9800;strokeColor=none;dashed=0;verticalLabelPosition=bottom;verticalAlign=top;align=center;html=1;fontSize=10;fontStyle=0;aspect=fixed;pointerEvents=1;shape=mxgraph.aws4.s3_object;" parent="0Qthqk3X6Qb_spCmdpEP-76" vertex="1">
          <mxGeometry x="50" y="45" width="30" height="30" as="geometry" />
        </mxCell>
        <mxCell id="0Qthqk3X6Qb_spCmdpEP-77" value="" style="group" vertex="1" connectable="0" parent="0Qthqk3X6Qb_spCmdpEP-80">
          <mxGeometry x="530" y="330" width="300" height="120" as="geometry" />
        </mxCell>
        <mxCell id="processing-logs" value="Processing Logs" style="rounded=1;whiteSpace=wrap;html=1;fillColor=#F3E5F5;strokeColor=#9C27B0;fontSize=12;fontStyle=1;verticalAlign=top;spacingTop=10;" parent="0Qthqk3X6Qb_spCmdpEP-77" vertex="1">
          <mxGeometry width="300" height="120" as="geometry" />
        </mxCell>
        <mxCell id="error-log" value="⚠️ errors.log" style="sketch=0;outlineConnect=0;fontColor=#232F3E;gradientColor=none;fillColor=#9C27B0;strokeColor=none;dashed=0;verticalLabelPosition=bottom;verticalAlign=top;align=center;html=1;fontSize=10;fontStyle=0;aspect=fixed;pointerEvents=1;shape=mxgraph.aws4.s3_object;" parent="0Qthqk3X6Qb_spCmdpEP-77" vertex="1">
          <mxGeometry x="125" y="45" width="30" height="30" as="geometry" />
        </mxCell>
        <mxCell id="performance-log" value="⏱️ performance.json" style="sketch=0;outlineConnect=0;fontColor=#232F3E;gradientColor=none;fillColor=#9C27B0;strokeColor=none;dashed=0;verticalLabelPosition=bottom;verticalAlign=top;align=center;html=1;fontSize=10;fontStyle=0;aspect=fixed;pointerEvents=1;shape=mxgraph.aws4.s3_object;" parent="0Qthqk3X6Qb_spCmdpEP-77" vertex="1">
          <mxGeometry x="220" y="40" width="30" height="30" as="geometry" />
        </mxCell>
        <mxCell id="processing-log" value="📝 processing.log" style="sketch=0;outlineConnect=0;fontColor=#232F3E;gradientColor=none;fillColor=#9C27B0;strokeColor=none;dashed=0;verticalLabelPosition=bottom;verticalAlign=top;align=center;html=1;fontSize=10;fontStyle=0;aspect=fixed;pointerEvents=1;shape=mxgraph.aws4.s3_object;" parent="0Qthqk3X6Qb_spCmdpEP-77" vertex="1">
          <mxGeometry x="30" y="45" width="30" height="30" as="geometry" />
        </mxCell>
        <mxCell id="conn9" value="" style="endArrow=classic;html=1;rounded=0;strokeColor=#FF9800;strokeWidth=1;" parent="0Qthqk3X6Qb_spCmdpEP-80" source="reports-dir" target="compliance-report" edge="1">
          <mxGeometry width="50" height="50" relative="1" as="geometry">
            <mxPoint x="220" y="100" as="sourcePoint" />
            <mxPoint x="270" y="50" as="targetPoint" />
          </mxGeometry>
        </mxCell>
        <mxCell id="conn8" value="" style="endArrow=classic;html=1;rounded=0;strokeColor=#FF9800;strokeWidth=1;" parent="0Qthqk3X6Qb_spCmdpEP-80" source="reports-dir" target="detailed-analysis" edge="1">
          <mxGeometry width="50" height="50" relative="1" as="geometry">
            <mxPoint x="220" y="100" as="sourcePoint" />
            <mxPoint x="270" y="50" as="targetPoint" />
          </mxGeometry>
        </mxCell>
        <mxCell id="conn7" value="" style="endArrow=classic;html=1;rounded=0;strokeColor=#FF9800;strokeWidth=1;" parent="0Qthqk3X6Qb_spCmdpEP-80" source="reports-dir" target="summary-report" edge="1">
          <mxGeometry width="50" height="50" relative="1" as="geometry">
            <mxPoint x="220" y="100" as="sourcePoint" />
            <mxPoint x="270" y="50" as="targetPoint" />
          </mxGeometry>
        </mxCell>
        <mxCell id="conn11" value="" style="endArrow=classic;html=1;rounded=0;strokeColor=#9C27B0;strokeWidth=1;" parent="0Qthqk3X6Qb_spCmdpEP-80" source="logs-dir" target="error-log" edge="1">
          <mxGeometry width="50" height="50" relative="1" as="geometry">
            <mxPoint x="220" y="100" as="sourcePoint" />
            <mxPoint x="270" y="50" as="targetPoint" />
          </mxGeometry>
        </mxCell>
        <mxCell id="conn12" value="" style="endArrow=classic;html=1;rounded=0;strokeColor=#9C27B0;strokeWidth=1;" parent="0Qthqk3X6Qb_spCmdpEP-80" source="logs-dir" target="performance-log" edge="1">
          <mxGeometry width="50" height="50" relative="1" as="geometry">
            <mxPoint x="210" y="180" as="sourcePoint" />
            <mxPoint x="260" y="130" as="targetPoint" />
          </mxGeometry>
        </mxCell>
        <mxCell id="conn10" value="" style="endArrow=classic;html=1;rounded=0;strokeColor=#9C27B0;strokeWidth=1;" parent="0Qthqk3X6Qb_spCmdpEP-80" source="logs-dir" target="processing-log" edge="1">
          <mxGeometry width="50" height="50" relative="1" as="geometry">
            <mxPoint x="220" y="100" as="sourcePoint" />
            <mxPoint x="270" y="50" as="targetPoint" />
          </mxGeometry>
        </mxCell>
        <mxCell id="uuid-dir" value="📁 {uuid}/" style="sketch=0;outlineConnect=0;fontColor=#232F3E;gradientColor=none;fillColor=#FF9800;strokeColor=none;dashed=0;verticalLabelPosition=bottom;verticalAlign=top;align=center;html=1;fontSize=12;fontStyle=1;aspect=fixed;pointerEvents=1;shape=mxgraph.aws4.folder;" parent="0Qthqk3X6Qb_spCmdpEP-81" vertex="1">
          <mxGeometry x="565" y="50" width="50" height="50" as="geometry" />
        </mxCell>
        <mxCell id="conn6" value="" style="endArrow=classic;html=1;rounded=0;strokeColor=#FF9800;strokeWidth=1;" parent="0Qthqk3X6Qb_spCmdpEP-81" source="uuid-dir" target="meta-json" edge="1">
          <mxGeometry width="50" height="50" relative="1" as="geometry">
            <mxPoint x="210" y="180" as="sourcePoint" />
            <mxPoint x="260" y="130" as="targetPoint" />
          </mxGeometry>
        </mxCell>
        <mxCell id="conn2" value="" style="endArrow=classic;html=1;rounded=0;strokeColor=#FF9800;strokeWidth=1;" parent="0Qthqk3X6Qb_spCmdpEP-81" source="uuid-dir" target="output-payload" edge="1">
          <mxGeometry width="50" height="50" relative="1" as="geometry">
            <mxPoint x="210" y="180" as="sourcePoint" />
            <mxPoint x="260" y="130" as="targetPoint" />
          </mxGeometry>
        </mxCell>
        <mxCell id="conn3" value="" style="endArrow=classic;html=1;rounded=0;strokeColor=#FF9800;strokeWidth=1;" parent="0Qthqk3X6Qb_spCmdpEP-81" source="uuid-dir" target="processed-data" edge="1">
          <mxGeometry width="50" height="50" relative="1" as="geometry">
            <mxPoint x="220" y="100" as="sourcePoint" />
            <mxPoint x="270" y="50" as="targetPoint" />
          </mxGeometry>
        </mxCell>
        <mxCell id="conn5" value="" style="endArrow=classic;html=1;rounded=0;strokeColor=#FF9800;strokeWidth=1;" parent="0Qthqk3X6Qb_spCmdpEP-81" source="uuid-dir" target="logs-dir" edge="1">
          <mxGeometry width="50" height="50" relative="1" as="geometry">
            <mxPoint x="220" y="100" as="sourcePoint" />
            <mxPoint x="270" y="50" as="targetPoint" />
          </mxGeometry>
        </mxCell>
        <mxCell id="conn4" value="" style="endArrow=classic;html=1;rounded=0;strokeColor=#FF9800;strokeWidth=1;" parent="0Qthqk3X6Qb_spCmdpEP-81" source="uuid-dir" target="reports-dir" edge="1">
          <mxGeometry width="50" height="50" relative="1" as="geometry">
            <mxPoint x="220" y="100" as="sourcePoint" />
            <mxPoint x="270" y="50" as="targetPoint" />
          </mxGeometry>
        </mxCell>
        <mxCell id="conn1" value="" style="endArrow=classic;html=1;rounded=0;strokeColor=#3F48CC;strokeWidth=2;" parent="s3-bucket-structure" source="root-dir" target="uuid-dir" edge="1">
          <mxGeometry width="50" height="50" relative="1" as="geometry">
            <mxPoint x="240" y="300" as="sourcePoint" />
            <mxPoint x="290" y="250" as="targetPoint" />
          </mxGeometry>
        </mxCell>
        <mxCell id="conn13" value="" style="endArrow=classic;html=1;rounded=0;strokeColor=#009688;strokeWidth=2;" parent="1" source="uuid-dir" target="cloudfront-dist" edge="1">
          <mxGeometry width="50" height="50" relative="1" as="geometry">
            <mxPoint x="300" y="400" as="sourcePoint" />
            <mxPoint x="350" y="350" as="targetPoint" />
          </mxGeometry>
        </mxCell>
        <mxCell id="conn15" value="" style="endArrow=none;dashed=1;html=1;strokeColor=#FFC107;strokeWidth=2;" parent="1" source="meta-json" target="metadata-json-detail" edge="1">
          <mxGeometry width="50" height="50" relative="1" as="geometry">
            <mxPoint x="300" y="400" as="sourcePoint" />
            <mxPoint x="350" y="350" as="targetPoint" />
            <Array as="points">
              <mxPoint x="980" y="710" />
            </Array>
          </mxGeometry>
        </mxCell>
        <mxCell id="0Qthqk3X6Qb_spCmdpEP-78" value="" style="group" vertex="1" connectable="0" parent="1">
          <mxGeometry x="1270" y="320" width="340" height="160" as="geometry" />
        </mxCell>
        <mxCell id="cdn-distribution" value="CDN Distribution" style="rounded=1;whiteSpace=wrap;html=1;fillColor=#E0F2F1;strokeColor=#009688;fontSize=14;fontStyle=1;verticalAlign=top;spacingTop=10;" parent="0Qthqk3X6Qb_spCmdpEP-78" vertex="1">
          <mxGeometry width="340" height="160" as="geometry" />
        </mxCell>
        <mxCell id="cloudfront-dist" value="☁️ CloudFront Distribution" style="sketch=0;outlineConnect=0;fontColor=#232F3E;gradientColor=none;fillColor=#8C4FFF;strokeColor=none;dashed=0;verticalLabelPosition=bottom;verticalAlign=top;align=center;html=1;fontSize=12;fontStyle=0;aspect=fixed;pointerEvents=1;shape=mxgraph.aws4.cloudfront;" parent="0Qthqk3X6Qb_spCmdpEP-78" vertex="1">
          <mxGeometry x="40" y="50" width="60" height="60" as="geometry" />
        </mxCell>
        <mxCell id="signed-urls" value="🔗 Pre-signed URLs" style="sketch=0;outlineConnect=0;fontColor=#232F3E;gradientColor=none;fillColor=#009688;strokeColor=none;dashed=0;verticalLabelPosition=bottom;verticalAlign=top;align=center;html=1;fontSize=12;fontStyle=0;aspect=fixed;pointerEvents=1;shape=mxgraph.aws4.certificate_manager;" parent="0Qthqk3X6Qb_spCmdpEP-78" vertex="1">
          <mxGeometry x="240" y="50" width="60" height="60" as="geometry" />
        </mxCell>
        <mxCell id="conn14" value="" style="endArrow=classic;html=1;rounded=0;strokeColor=#009688;strokeWidth=2;" parent="0Qthqk3X6Qb_spCmdpEP-78" source="cloudfront-dist" target="signed-urls" edge="1">
          <mxGeometry width="50" height="50" relative="1" as="geometry">
            <mxPoint x="-990" y="90" as="sourcePoint" />
            <mxPoint x="-940" y="40" as="targetPoint" />
          </mxGeometry>
        </mxCell>
        <mxCell id="0Qthqk3X6Qb_spCmdpEP-79" value="" style="group" vertex="1" connectable="0" parent="1">
          <mxGeometry x="1270" y="570" width="410" height="270" as="geometry" />
        </mxCell>
        <mxCell id="metadata-detail" value="Metadata Structure Detail" style="rounded=1;whiteSpace=wrap;html=1;fillColor=#f8cecc;strokeColor=#b85450;fontSize=14;fontStyle=1;verticalAlign=top;spacingTop=10;" parent="0Qthqk3X6Qb_spCmdpEP-79" vertex="1">
          <mxGeometry width="410" height="270" as="geometry" />
        </mxCell>
        <mxCell id="metadata-json-detail" value="📊 metadata.json&#xa;{&#xa;  &#39;session_id&#39;: &#39;uuid&#39;,&#xa;  &#39;timestamp&#39;: &#39;2025-01-15T10:30:00Z&#39;,&#xa;  &#39;user_request&#39;: &#39;Original request&#39;,&#xa;  &#39;processing_profile&#39;: [&#39;enterprise&#39;, &#39;secure&#39;],&#xa;  &#39;processing_time&#39;: &#39;45.2s&#39;,&#xa;  &#39;tools_used&#39;: [&#39;claude&#39;, &#39;data-analyzer&#39;],&#xa;  &#39;output_components&#39;: 4,&#xa;  &#39;quality_score&#39;: 0.95,&#xa;  &#39;compliance_status&#39;: &#39;passed&#39;,&#xa;  &#39;file_sizes&#39;: {...},&#xa;  &#39;performance_metrics&#39;: {...}&#xa;}" style="rounded=1;whiteSpace=wrap;html=1;fillColor=#f8cecc;strokeColor=#b85450;fontSize=10;fontStyle=0;align=left;verticalAlign=top;spacingTop=10;spacingLeft=10;" parent="0Qthqk3X6Qb_spCmdpEP-79" vertex="1">
          <mxGeometry x="30" y="40" width="360" height="210" as="geometry" />
        </mxCell>
      </root>
    </mxGraphModel>
  </diagram>
</mxfile>
